<svg xmlns="http://www.w3.org/2000/svg" width="250.47" height="62.826" viewBox="0 0 250.47 62.826">
  <g id="App_Store" data-name="App Store" transform="translate(0 -0.544)" style="mix-blend-mode: normal;isolation: isolate">
    <g id="Button">
      <rect id="Button-2" data-name="Button" width="250.47" height="62.408" rx="7.5" transform="translate(0 0.544)" fill="#565f64"/>
      <rect id="Divider" width="0.68" height="62.37" transform="translate(65.129 1)" fill="#fff"/>
    </g>
    <g id="Apple_Text" data-name="Apple + Text" transform="translate(20.142 15.652)">
      <path id="Apple_Logo" data-name="Apple Logo" d="M8.355,30.383c-2.239-.02-3.951-2.214-5.233-4.165C-.464,20.76-.839,14.356,1.373,10.952A7.934,7.934,0,0,1,7.755,7.115c2.374,0,3.865,1.3,5.828,1.3,1.9,0,3.063-1.3,5.807-1.3A7.744,7.744,0,0,1,25.226,10.2a6.678,6.678,0,0,0,.887,12.1,21.838,21.838,0,0,1-1.974,3.685c-1.282,1.952-3.089,4.382-5.328,4.4a5.019,5.019,0,0,1-2.338-.641A6.182,6.182,0,0,0,13.61,29.1c-2.68.015-3.256,1.285-5.211,1.285ZM12.623,7.311A6.179,6.179,0,0,1,14.142,2.5,7.194,7.194,0,0,1,18.786,0a6.656,6.656,0,0,1-1.479,4.933,6.123,6.123,0,0,1-4.555,2.38Z" transform="translate(0 0.938)" fill="#fff"/>
      <text id="APP_STORE-2" data-name="APP STORE" transform="translate(61.871 31.078)" fill="#fff" font-size="16" font-family="Poppins-SemiBold, Poppins" font-weight="600" opacity="0.941"><tspan x="0" y="0">APP STORE</tspan></text>
      <text id="Download_it_from" data-name="Download it from" transform="translate(61.218 11)" fill="#fff" font-size="14" font-family="Poppins-Regular, Poppins"><tspan x="0" y="0">Download it from</tspan></text>
    </g>
  </g>
</svg>
