<svg xmlns="http://www.w3.org/2000/svg" width="145" height="40" viewBox="0 0 145 40">
  <g id="Google_Play" data-name="Google Play" transform="translate(0 -0.457)">
    <rect id="Button" width="145" height="40" rx="4" transform="translate(0 0.457)" fill="#565f64"/>
    <rect id="Divider" width="1" height="40" transform="translate(37 0.457)" fill="#fff"/>
    <g id="Download_it_from_" data-name="Download it from " transform="translate(49.078 8.457)" opacity="0.941">
      <text id="Download_it_from" data-name="Download it from" transform="translate(-0.078 8)" fill="#fff" font-size="8" font-family="Poppins-Regular, Poppins"><tspan x="0" y="0">Download it from</tspan></text>
    </g>
    <path id="Apple_Logo" data-name="Apple Logo" d="M5.439,20c-1.458-.013-2.572-1.458-3.407-2.742C-.3,13.666-.546,9.45.894,7.209A5.156,5.156,0,0,1,5.048,4.684c1.545,0,2.516.857,3.794.857,1.239,0,1.994-.858,3.78-.858a5.024,5.024,0,0,1,3.8,2.029A4.416,4.416,0,0,0,17,14.673,14.428,14.428,0,0,1,15.715,17.1c-.835,1.285-2.011,2.884-3.468,2.9a3.24,3.24,0,0,1-1.522-.422,3.988,3.988,0,0,0-1.865-.422C7.115,19.164,6.74,20,5.467,20ZM8.218,4.813a4.1,4.1,0,0,1,.988-3.168A4.668,4.668,0,0,1,12.23,0a4.415,4.415,0,0,1-.963,3.247A3.973,3.973,0,0,1,8.3,4.814Z" transform="translate(10 10.457)" fill="#fff"/>
    <text id="APP_STORE" data-name="APP STORE" transform="translate(49 29.457)" fill="#fff" font-size="9" font-family="Poppins-SemiBold, Poppins" font-weight="600"><tspan x="0" y="0">APP STORE</tspan></text>
  </g>
</svg>
