<svg xmlns="http://www.w3.org/2000/svg" width="28" height="28" viewBox="0 0 28 28">
  <g id="icon_fav" transform="translate(-1119.684 -46)">
    <g id="vuesax_linear_notification-bing" data-name="vuesax/linear/notification-bing" transform="translate(1011.684 -142)">
      <g id="notification-bing" transform="translate(108 188)">
        <path id="Vector" d="M0,0V3.885" transform="translate(14 7.513)" fill="none" stroke="#292d32" stroke-linecap="round" stroke-width="1.5"/>
        <path id="Vector-2" data-name="Vector" d="M10.4,0a7.767,7.767,0,0,0-7.77,7.77v2.45A6.058,6.058,0,0,1,1.9,12.88L.417,15.353a2.488,2.488,0,0,0,1.4,3.792,27.23,27.23,0,0,0,17.185,0,2.59,2.59,0,0,0,1.4-3.792L18.92,12.88a6.1,6.1,0,0,1-.735-2.66V7.77A7.815,7.815,0,0,0,10.4,0Z" transform="translate(3.62 2.333)" fill="none" stroke="#292d32" stroke-linecap="round" stroke-width="1.5"/>
        <path id="Vector-3" data-name="Vector" d="M7.77,0A3.9,3.9,0,0,1,3.885,3.885,3.892,3.892,0,0,1,1.143,2.742,3.892,3.892,0,0,1,0,0" transform="translate(10.115 21.957)" fill="none" stroke="#292d32" stroke-width="1.5"/>
        <path id="Vector-4" data-name="Vector" d="M0,0H28V28H0Z" fill="none" opacity="0"/>
      </g>
    </g>
    <g id="Group_2" data-name="Group 2" transform="translate(-0.317)">
      <circle id="Ellipse_1" data-name="Ellipse 1" cx="6.5" cy="6.5" r="6.5" transform="translate(1135 46)" fill="#ff3131"/>
      <text id="A_transformative_tri" data-name="A transformative tri" transform="translate(1138.683 56)" fill="#fff" font-size="9" font-family="Poppins-Regular, Poppins" opacity="0.92"><tspan x="0" y="0">0</tspan></text>
    </g>
  </g>
</svg>
