<svg xmlns="http://www.w3.org/2000/svg" xmlns:xlink="http://www.w3.org/1999/xlink" width="41" height="41" viewBox="0 0 41 41">
  <defs>
    <radialGradient id="radial-gradient" cx="0.266" cy="1.077" r="0.991" gradientUnits="objectBoundingBox">
      <stop offset="0" stop-color="#fd5"/>
      <stop offset="0.1" stop-color="#fd5"/>
      <stop offset="0.5" stop-color="#ff543e"/>
      <stop offset="1" stop-color="#c837ab"/>
    </radialGradient>
    <radialGradient id="radial-gradient-2" cx="-0.168" cy="0.072" r="0.443" gradientUnits="objectBoundingBox">
      <stop offset="0" stop-color="#3771c8"/>
      <stop offset="0.128" stop-color="#3771c8"/>
      <stop offset="1" stop-color="#60f" stop-opacity="0"/>
    </radialGradient>
  </defs>
  <g id="Insta" transform="translate(-79.5 -1078.5)">
    <circle id="Ellipse_3328" data-name="Ellipse 3328" cx="20" cy="20" r="20" transform="translate(80 1079)" stroke="rgba(0,0,0,0)" stroke-width="1" fill="url(#radial-gradient)"/>
    <circle id="Ellipse_3329" data-name="Ellipse 3329" cx="20" cy="20" r="20" transform="translate(80 1079)" fill="url(#radial-gradient-2)"/>
    <g id="Group_57036" data-name="Group 57036" transform="translate(88.889 1087.889)">
      <path id="Path_45943" data-name="Path 45943" d="M11.112,0c-3.018,0-3.4.013-4.581.067a8.148,8.148,0,0,0-2.7.516A5.437,5.437,0,0,0,1.865,1.865,5.453,5.453,0,0,0,.583,3.832a8.121,8.121,0,0,0-.516,2.7C.014,7.714,0,8.094,0,11.111s.013,3.395.067,4.581a8.166,8.166,0,0,0,.516,2.7,5.449,5.449,0,0,0,1.281,1.969,5.445,5.445,0,0,0,1.968,1.282,8.168,8.168,0,0,0,2.7.516c1.185.054,1.564.067,4.581.067s3.4-.013,4.581-.067a8.172,8.172,0,0,0,2.7-.516,5.692,5.692,0,0,0,3.25-3.25,8.235,8.235,0,0,0,.516-2.7c.053-1.185.067-1.563.067-4.581s-.014-3.4-.067-4.581a8.232,8.232,0,0,0-.516-2.7,5.45,5.45,0,0,0-1.282-1.968A5.428,5.428,0,0,0,18.389.583a8.173,8.173,0,0,0-2.7-.516C14.5.013,14.127,0,11.109,0Zm-1,2h1c2.967,0,3.318.011,4.49.064a6.144,6.144,0,0,1,2.063.383,3.443,3.443,0,0,1,1.277.831,3.448,3.448,0,0,1,.831,1.278,6.132,6.132,0,0,1,.382,2.063c.054,1.171.065,1.523.065,4.488s-.011,3.318-.065,4.488a6.135,6.135,0,0,1-.382,2.063,3.682,3.682,0,0,1-2.108,2.107,6.105,6.105,0,0,1-2.063.383c-1.171.054-1.523.065-4.49.065s-3.319-.012-4.49-.065a6.15,6.15,0,0,1-2.063-.383,3.442,3.442,0,0,1-1.278-.831,3.445,3.445,0,0,1-.831-1.277A6.141,6.141,0,0,1,2.067,15.6C2.014,14.425,2,14.073,2,11.106s.011-3.318.064-4.489A6.162,6.162,0,0,1,2.45,4.554a3.446,3.446,0,0,1,.831-1.278,3.46,3.46,0,0,1,1.278-.831,6.147,6.147,0,0,1,2.063-.383C7.647,2.016,8.044,2,10.115,2Z" fill="#fff"/>
      <path id="Path_45944" data-name="Path 45944" d="M35.214,8.25a1.333,1.333,0,1,0,1.333,1.333A1.336,1.336,0,0,0,35.214,8.25Z" transform="translate(-18.195 -4.431)" fill="#fff"/>
      <path id="Path_45945" data-name="Path 45945" d="M17.331,11.616a5.706,5.706,0,1,0,5.706,5.706A5.707,5.707,0,0,0,17.331,11.616ZM17.354,21a3.646,3.646,0,1,0-3.646-3.646A3.646,3.646,0,0,0,17.354,21Z" transform="translate(-6.243 -6.238)" fill="#fff" fill-rule="evenodd"/>
      <path id="Path_45946" data-name="Path 45946" d="M11.112,0c-3.018,0-3.4.013-4.581.067a8.148,8.148,0,0,0-2.7.516A5.437,5.437,0,0,0,1.865,1.865,5.453,5.453,0,0,0,.583,3.832a8.121,8.121,0,0,0-.516,2.7C.014,7.714,0,8.094,0,11.111s.013,3.395.067,4.581a8.166,8.166,0,0,0,.516,2.7,5.449,5.449,0,0,0,1.281,1.969,5.445,5.445,0,0,0,1.968,1.282,8.168,8.168,0,0,0,2.7.516c1.185.054,1.564.067,4.581.067s3.4-.013,4.581-.067a8.172,8.172,0,0,0,2.7-.516,5.692,5.692,0,0,0,3.25-3.25,8.235,8.235,0,0,0,.516-2.7c.053-1.185.067-1.563.067-4.581s-.014-3.4-.067-4.581a8.232,8.232,0,0,0-.516-2.7,5.45,5.45,0,0,0-1.282-1.968A5.428,5.428,0,0,0,18.389.583a8.173,8.173,0,0,0-2.7-.516C14.5.013,14.127,0,11.109,0Zm-1,2h1c2.967,0,3.318.011,4.49.064a6.144,6.144,0,0,1,2.063.383,3.443,3.443,0,0,1,1.277.831,3.448,3.448,0,0,1,.831,1.278,6.132,6.132,0,0,1,.382,2.063c.054,1.171.065,1.523.065,4.488s-.011,3.318-.065,4.488a6.135,6.135,0,0,1-.382,2.063,3.682,3.682,0,0,1-2.108,2.107,6.105,6.105,0,0,1-2.063.383c-1.171.054-1.523.065-4.49.065s-3.319-.012-4.49-.065a6.15,6.15,0,0,1-2.063-.383,3.442,3.442,0,0,1-1.278-.831,3.445,3.445,0,0,1-.831-1.277A6.141,6.141,0,0,1,2.067,15.6C2.014,14.425,2,14.073,2,11.106s.011-3.318.064-4.489A6.162,6.162,0,0,1,2.45,4.554a3.446,3.446,0,0,1,.831-1.278,3.46,3.46,0,0,1,1.278-.831,6.147,6.147,0,0,1,2.063-.383C7.647,2.016,8.044,2,10.115,2Z" fill="#fff"/>
      <path id="Path_45947" data-name="Path 45947" d="M35.214,8.25a1.333,1.333,0,1,0,1.333,1.333A1.336,1.336,0,0,0,35.214,8.25Z" transform="translate(-18.195 -4.431)" fill="#fff"/>
      <path id="Path_45948" data-name="Path 45948" d="M17.331,11.616a5.706,5.706,0,1,0,5.706,5.706A5.707,5.707,0,0,0,17.331,11.616ZM17.354,21a3.646,3.646,0,1,0-3.646-3.646A3.646,3.646,0,0,0,17.354,21Z" transform="translate(-6.243 -6.238)" fill="#fff" fill-rule="evenodd"/>
    </g>
  </g>
</svg>
