<svg xmlns="http://www.w3.org/2000/svg" width="24" height="24" viewBox="0 0 24 24">
  <g id="vuesax_linear_location" data-name="vuesax/linear/location" transform="translate(-428 -188)">
    <g id="location" transform="translate(428 188)">
      <path id="Vector" d="M6.24,3.12A3.12,3.12,0,1,1,3.12,0,3.12,3.12,0,0,1,6.24,3.12Z" transform="translate(8.88 7.19)" fill="none" stroke="#999b9f" stroke-width="1.5"/>
      <path id="Vector-2" data-name="Vector" d="M.243,6.49c1.97-8.66,14.8-8.65,16.76.01,1.15,5.08-2.01,9.38-4.78,12.04a5.193,5.193,0,0,1-7.21,0C2.253,15.88-.907,11.57.243,6.49Z" transform="translate(3.377 2)" fill="none" stroke="#999b9f" stroke-width="1.5"/>
      <path id="Vector-3" data-name="Vector" d="M0,0H24V24H0Z" transform="translate(24 24) rotate(180)" fill="none" opacity="0"/>
    </g>
  </g>
</svg>
