<svg xmlns="http://www.w3.org/2000/svg" width="1920" height="608" viewBox="0 0 1920 608">
  <g id="Group_73377" data-name="Group 73377" transform="translate(0 -5043)">
    <rect id="Rectangle_1428" data-name="Rectangle 1428" width="1920" height="608" transform="translate(0 5043)" fill="#fff974"/>
    <g id="Group_2" data-name="Group 2" transform="translate(418.858 5044.256)">
      <ellipse id="Ellipse_4" data-name="Ellipse 4" cx="2.5" cy="3" rx="2.5" ry="3" transform="translate(0.142 -0.256)" fill="#e7e0e1"/>
      <ellipse id="Ellipse_64" data-name="Ellipse 64" cx="2.5" cy="3" rx="2.5" ry="3" transform="translate(0.142 106.744)" fill="#e7e0e1"/>
      <circle id="Ellipse_20" data-name="Ellipse 20" cx="2.5" cy="2.5" r="2.5" transform="translate(0.142 53.744)" fill="#e7e0e1"/>
      <ellipse id="Ellipse_65" data-name="Ellipse 65" cx="2.5" cy="3" rx="2.5" ry="3" transform="translate(0.142 159.744)" fill="#e7e0e1"/>
      <ellipse id="Ellipse_12" data-name="Ellipse 12" cx="2.5" cy="3" rx="2.5" ry="3" transform="translate(0.142 26.744)" fill="#e7e0e1"/>
      <circle id="Ellipse_66" data-name="Ellipse 66" cx="2.5" cy="2.5" r="2.5" transform="translate(0.142 133.744)" fill="#e7e0e1"/>
      <ellipse id="Ellipse_21" data-name="Ellipse 21" cx="2.5" cy="3" rx="2.5" ry="3" transform="translate(0.142 79.744)" fill="#e7e0e1"/>
      <ellipse id="Ellipse_67" data-name="Ellipse 67" cx="2.5" cy="3" rx="2.5" ry="3" transform="translate(0.142 186.744)" fill="#e7e0e1"/>
      <ellipse id="Ellipse_11" data-name="Ellipse 11" cx="2.5" cy="3" rx="2.5" ry="3" transform="translate(107.142 -0.256)" fill="#e7e0e1"/>
      <ellipse id="Ellipse_51" data-name="Ellipse 51" cx="2.5" cy="3" rx="2.5" ry="3" transform="translate(107.142 106.744)" fill="#e7e0e1"/>
      <circle id="Ellipse_28" data-name="Ellipse 28" cx="2.5" cy="2.5" r="2.5" transform="translate(107.142 53.744)" fill="#e7e0e1"/>
      <ellipse id="Ellipse_42" data-name="Ellipse 42" cx="2.5" cy="3" rx="2.5" ry="3" transform="translate(107.142 159.744)" fill="#e7e0e1"/>
      <ellipse id="Ellipse_13" data-name="Ellipse 13" cx="2.5" cy="3" rx="2.5" ry="3" transform="translate(107.142 26.744)" fill="#e7e0e1"/>
      <circle id="Ellipse_43" data-name="Ellipse 43" cx="2.5" cy="2.5" r="2.5" transform="translate(107.142 133.744)" fill="#e7e0e1"/>
      <ellipse id="Ellipse_29" data-name="Ellipse 29" cx="2.5" cy="3" rx="2.5" ry="3" transform="translate(107.142 79.744)" fill="#e7e0e1"/>
      <ellipse id="Ellipse_44" data-name="Ellipse 44" cx="2.5" cy="3" rx="2.5" ry="3" transform="translate(107.142 186.744)" fill="#e7e0e1"/>
      <circle id="Ellipse_7" data-name="Ellipse 7" cx="3" cy="3" r="3" transform="translate(53.142 -0.256)" fill="#e7e0e1"/>
      <circle id="Ellipse_56" data-name="Ellipse 56" cx="3" cy="3" r="3" transform="translate(53.142 106.744)" fill="#e7e0e1"/>
      <ellipse id="Ellipse_22" data-name="Ellipse 22" cx="3" cy="2.5" rx="3" ry="2.5" transform="translate(53.142 53.744)" fill="#e7e0e1"/>
      <circle id="Ellipse_57" data-name="Ellipse 57" cx="3" cy="3" r="3" transform="translate(53.142 159.744)" fill="#e7e0e1"/>
      <circle id="Ellipse_14" data-name="Ellipse 14" cx="3" cy="3" r="3" transform="translate(53.142 26.744)" fill="#e7e0e1"/>
      <ellipse id="Ellipse_58" data-name="Ellipse 58" cx="3" cy="2.5" rx="3" ry="2.5" transform="translate(53.142 133.744)" fill="#e7e0e1"/>
      <circle id="Ellipse_23" data-name="Ellipse 23" cx="3" cy="3" r="3" transform="translate(53.142 79.744)" fill="#e7e0e1"/>
      <circle id="Ellipse_59" data-name="Ellipse 59" cx="3" cy="3" r="3" transform="translate(53.142 186.744)" fill="#e7e0e1"/>
      <circle id="Ellipse_9" data-name="Ellipse 9" cx="3" cy="3" r="3" transform="translate(160.142 -0.256)" fill="#e7e0e1"/>
      <circle id="Ellipse_52" data-name="Ellipse 52" cx="3" cy="3" r="3" transform="translate(160.142 106.744)" fill="#e7e0e1"/>
      <ellipse id="Ellipse_30" data-name="Ellipse 30" cx="3" cy="2.5" rx="3" ry="2.5" transform="translate(160.142 53.744)" fill="#e7e0e1"/>
      <circle id="Ellipse_37" data-name="Ellipse 37" cx="3" cy="3" r="3" transform="translate(160.142 159.744)" fill="#e7e0e1"/>
      <circle id="Ellipse_15" data-name="Ellipse 15" cx="3" cy="3" r="3" transform="translate(160.142 26.744)" fill="#e7e0e1"/>
      <ellipse id="Ellipse_45" data-name="Ellipse 45" cx="3" cy="2.5" rx="3" ry="2.5" transform="translate(160.142 133.744)" fill="#e7e0e1"/>
      <circle id="Ellipse_31" data-name="Ellipse 31" cx="3" cy="3" r="3" transform="translate(160.142 79.744)" fill="#e7e0e1"/>
      <circle id="Ellipse_38" data-name="Ellipse 38" cx="3" cy="3" r="3" transform="translate(160.142 186.744)" fill="#e7e0e1"/>
      <ellipse id="Ellipse_5" data-name="Ellipse 5" cx="2.5" cy="3" rx="2.5" ry="3" transform="translate(27.142 -0.256)" fill="#e7e0e1"/>
      <ellipse id="Ellipse_60" data-name="Ellipse 60" cx="2.5" cy="3" rx="2.5" ry="3" transform="translate(27.142 106.744)" fill="#e7e0e1"/>
      <circle id="Ellipse_24" data-name="Ellipse 24" cx="2.5" cy="2.5" r="2.5" transform="translate(27.142 53.744)" fill="#e7e0e1"/>
      <ellipse id="Ellipse_61" data-name="Ellipse 61" cx="2.5" cy="3" rx="2.5" ry="3" transform="translate(27.142 159.744)" fill="#e7e0e1"/>
      <ellipse id="Ellipse_16" data-name="Ellipse 16" cx="2.5" cy="3" rx="2.5" ry="3" transform="translate(27.142 26.744)" fill="#e7e0e1"/>
      <circle id="Ellipse_62" data-name="Ellipse 62" cx="2.5" cy="2.5" r="2.5" transform="translate(27.142 133.744)" fill="#e7e0e1"/>
      <ellipse id="Ellipse_25" data-name="Ellipse 25" cx="2.5" cy="3" rx="2.5" ry="3" transform="translate(27.142 79.744)" fill="#e7e0e1"/>
      <ellipse id="Ellipse_63" data-name="Ellipse 63" cx="2.5" cy="3" rx="2.5" ry="3" transform="translate(27.142 186.744)" fill="#e7e0e1"/>
      <circle id="Ellipse_10" data-name="Ellipse 10" cx="3" cy="3" r="3" transform="translate(133.142 -0.256)" fill="#e7e0e1"/>
      <circle id="Ellipse_53" data-name="Ellipse 53" cx="3" cy="3" r="3" transform="translate(133.142 106.744)" fill="#e7e0e1"/>
      <ellipse id="Ellipse_32" data-name="Ellipse 32" cx="3" cy="2.5" rx="3" ry="2.5" transform="translate(133.142 53.744)" fill="#e7e0e1"/>
      <circle id="Ellipse_39" data-name="Ellipse 39" cx="3" cy="3" r="3" transform="translate(133.142 159.744)" fill="#e7e0e1"/>
      <circle id="Ellipse_17" data-name="Ellipse 17" cx="3" cy="3" r="3" transform="translate(133.142 26.744)" fill="#e7e0e1"/>
      <ellipse id="Ellipse_46" data-name="Ellipse 46" cx="3" cy="2.5" rx="3" ry="2.5" transform="translate(133.142 133.744)" fill="#e7e0e1"/>
      <circle id="Ellipse_33" data-name="Ellipse 33" cx="3" cy="3" r="3" transform="translate(133.142 79.744)" fill="#e7e0e1"/>
      <circle id="Ellipse_40" data-name="Ellipse 40" cx="3" cy="3" r="3" transform="translate(133.142 186.744)" fill="#e7e0e1"/>
      <circle id="Ellipse_6" data-name="Ellipse 6" cx="3" cy="3" r="3" transform="translate(80.142 -0.256)" fill="#e7e0e1"/>
      <circle id="Ellipse_54" data-name="Ellipse 54" cx="3" cy="3" r="3" transform="translate(80.142 106.744)" fill="#e7e0e1"/>
      <ellipse id="Ellipse_26" data-name="Ellipse 26" cx="3" cy="2.5" rx="3" ry="2.5" transform="translate(80.142 53.744)" fill="#e7e0e1"/>
      <circle id="Ellipse_48" data-name="Ellipse 48" cx="3" cy="3" r="3" transform="translate(80.142 159.744)" fill="#e7e0e1"/>
      <circle id="Ellipse_18" data-name="Ellipse 18" cx="3" cy="3" r="3" transform="translate(80.142 26.744)" fill="#e7e0e1"/>
      <ellipse id="Ellipse_49" data-name="Ellipse 49" cx="3" cy="2.5" rx="3" ry="2.5" transform="translate(80.142 133.744)" fill="#e7e0e1"/>
      <circle id="Ellipse_27" data-name="Ellipse 27" cx="3" cy="3" r="3" transform="translate(80.142 79.744)" fill="#e7e0e1"/>
      <circle id="Ellipse_50" data-name="Ellipse 50" cx="3" cy="3" r="3" transform="translate(80.142 186.744)" fill="#e7e0e1"/>
      <ellipse id="Ellipse_8" data-name="Ellipse 8" cx="2.5" cy="3" rx="2.5" ry="3" transform="translate(187.142 -0.256)" fill="#e7e0e1"/>
      <ellipse id="Ellipse_55" data-name="Ellipse 55" cx="2.5" cy="3" rx="2.5" ry="3" transform="translate(187.142 106.744)" fill="#e7e0e1"/>
      <circle id="Ellipse_34" data-name="Ellipse 34" cx="2.5" cy="2.5" r="2.5" transform="translate(187.142 53.744)" fill="#e7e0e1"/>
      <ellipse id="Ellipse_41" data-name="Ellipse 41" cx="2.5" cy="3" rx="2.5" ry="3" transform="translate(187.142 159.744)" fill="#e7e0e1"/>
      <ellipse id="Ellipse_19" data-name="Ellipse 19" cx="2.5" cy="3" rx="2.5" ry="3" transform="translate(187.142 26.744)" fill="#e7e0e1"/>
      <circle id="Ellipse_47" data-name="Ellipse 47" cx="2.5" cy="2.5" r="2.5" transform="translate(187.142 133.744)" fill="#e7e0e1"/>
      <ellipse id="Ellipse_35" data-name="Ellipse 35" cx="2.5" cy="3" rx="2.5" ry="3" transform="translate(187.142 79.744)" fill="#e7e0e1"/>
      <ellipse id="Ellipse_36" data-name="Ellipse 36" cx="2.5" cy="3" rx="2.5" ry="3" transform="translate(187.142 186.744)" fill="#e7e0e1"/>
    </g>
    <g id="Group_3" data-name="Group 3" transform="translate(1309.985 5239.629)">
      <ellipse id="Ellipse_4-2" data-name="Ellipse 4" cx="3" cy="2.5" rx="3" ry="2.5" transform="translate(0.015 0.37)" fill="#e7e0e1"/>
      <circle id="Ellipse_64-2" data-name="Ellipse 64" cx="3" cy="3" r="3" transform="translate(0.015 106.37)" fill="#e7e0e1"/>
      <circle id="Ellipse_20-2" data-name="Ellipse 20" cx="3" cy="3" r="3" transform="translate(0.015 53.37)" fill="#e7e0e1"/>
      <ellipse id="Ellipse_65-2" data-name="Ellipse 65" cx="3" cy="2.5" rx="3" ry="2.5" transform="translate(0.015 160.37)" fill="#e7e0e1"/>
      <circle id="Ellipse_12-2" data-name="Ellipse 12" cx="3" cy="3" r="3" transform="translate(0.015 26.37)" fill="#e7e0e1"/>
      <circle id="Ellipse_66-2" data-name="Ellipse 66" cx="3" cy="3" r="3" transform="translate(0.015 133.37)" fill="#e7e0e1"/>
      <ellipse id="Ellipse_21-2" data-name="Ellipse 21" cx="3" cy="2.5" rx="3" ry="2.5" transform="translate(0.015 80.37)" fill="#e7e0e1"/>
      <ellipse id="Ellipse_67-2" data-name="Ellipse 67" cx="3" cy="2.5" rx="3" ry="2.5" transform="translate(0.015 187.37)" fill="#e7e0e1"/>
      <circle id="Ellipse_11-2" data-name="Ellipse 11" cx="2.5" cy="2.5" r="2.5" transform="translate(107.015 0.37)" fill="#e7e0e1"/>
      <ellipse id="Ellipse_51-2" data-name="Ellipse 51" cx="2.5" cy="3" rx="2.5" ry="3" transform="translate(107.015 106.37)" fill="#e7e0e1"/>
      <ellipse id="Ellipse_28-2" data-name="Ellipse 28" cx="2.5" cy="3" rx="2.5" ry="3" transform="translate(107.015 53.37)" fill="#e7e0e1"/>
      <circle id="Ellipse_42-2" data-name="Ellipse 42" cx="2.5" cy="2.5" r="2.5" transform="translate(107.015 160.37)" fill="#e7e0e1"/>
      <ellipse id="Ellipse_13-2" data-name="Ellipse 13" cx="2.5" cy="3" rx="2.5" ry="3" transform="translate(107.015 26.37)" fill="#e7e0e1"/>
      <ellipse id="Ellipse_43-2" data-name="Ellipse 43" cx="2.5" cy="3" rx="2.5" ry="3" transform="translate(107.015 133.37)" fill="#e7e0e1"/>
      <circle id="Ellipse_29-2" data-name="Ellipse 29" cx="2.5" cy="2.5" r="2.5" transform="translate(107.015 80.37)" fill="#e7e0e1"/>
      <circle id="Ellipse_44-2" data-name="Ellipse 44" cx="2.5" cy="2.5" r="2.5" transform="translate(107.015 187.37)" fill="#e7e0e1"/>
      <ellipse id="Ellipse_7-2" data-name="Ellipse 7" cx="3" cy="2.5" rx="3" ry="2.5" transform="translate(53.015 0.37)" fill="#e7e0e1"/>
      <circle id="Ellipse_56-2" data-name="Ellipse 56" cx="3" cy="3" r="3" transform="translate(53.015 106.37)" fill="#e7e0e1"/>
      <circle id="Ellipse_22-2" data-name="Ellipse 22" cx="3" cy="3" r="3" transform="translate(53.015 53.37)" fill="#e7e0e1"/>
      <ellipse id="Ellipse_57-2" data-name="Ellipse 57" cx="3" cy="2.5" rx="3" ry="2.5" transform="translate(53.015 160.37)" fill="#e7e0e1"/>
      <circle id="Ellipse_14-2" data-name="Ellipse 14" cx="3" cy="3" r="3" transform="translate(53.015 26.37)" fill="#e7e0e1"/>
      <circle id="Ellipse_58-2" data-name="Ellipse 58" cx="3" cy="3" r="3" transform="translate(53.015 133.37)" fill="#e7e0e1"/>
      <ellipse id="Ellipse_23-2" data-name="Ellipse 23" cx="3" cy="2.5" rx="3" ry="2.5" transform="translate(53.015 80.37)" fill="#e7e0e1"/>
      <ellipse id="Ellipse_59-2" data-name="Ellipse 59" cx="3" cy="2.5" rx="3" ry="2.5" transform="translate(53.015 187.37)" fill="#e7e0e1"/>
      <ellipse id="Ellipse_9-2" data-name="Ellipse 9" cx="3" cy="2.5" rx="3" ry="2.5" transform="translate(160.015 0.37)" fill="#e7e0e1"/>
      <circle id="Ellipse_52-2" data-name="Ellipse 52" cx="3" cy="3" r="3" transform="translate(160.015 106.37)" fill="#e7e0e1"/>
      <circle id="Ellipse_30-2" data-name="Ellipse 30" cx="3" cy="3" r="3" transform="translate(160.015 53.37)" fill="#e7e0e1"/>
      <ellipse id="Ellipse_37-2" data-name="Ellipse 37" cx="3" cy="2.5" rx="3" ry="2.5" transform="translate(160.015 160.37)" fill="#e7e0e1"/>
      <circle id="Ellipse_15-2" data-name="Ellipse 15" cx="3" cy="3" r="3" transform="translate(160.015 26.37)" fill="#e7e0e1"/>
      <circle id="Ellipse_45-2" data-name="Ellipse 45" cx="3" cy="3" r="3" transform="translate(160.015 133.37)" fill="#e7e0e1"/>
      <ellipse id="Ellipse_31-2" data-name="Ellipse 31" cx="3" cy="2.5" rx="3" ry="2.5" transform="translate(160.015 80.37)" fill="#e7e0e1"/>
      <ellipse id="Ellipse_38-2" data-name="Ellipse 38" cx="3" cy="2.5" rx="3" ry="2.5" transform="translate(160.015 187.37)" fill="#e7e0e1"/>
      <circle id="Ellipse_5-2" data-name="Ellipse 5" cx="2.5" cy="2.5" r="2.5" transform="translate(27.015 0.37)" fill="#e7e0e1"/>
      <ellipse id="Ellipse_60-2" data-name="Ellipse 60" cx="2.5" cy="3" rx="2.5" ry="3" transform="translate(27.015 106.37)" fill="#e7e0e1"/>
      <ellipse id="Ellipse_24-2" data-name="Ellipse 24" cx="2.5" cy="3" rx="2.5" ry="3" transform="translate(27.015 53.37)" fill="#e7e0e1"/>
      <circle id="Ellipse_61-2" data-name="Ellipse 61" cx="2.5" cy="2.5" r="2.5" transform="translate(27.015 160.37)" fill="#e7e0e1"/>
      <ellipse id="Ellipse_16-2" data-name="Ellipse 16" cx="2.5" cy="3" rx="2.5" ry="3" transform="translate(27.015 26.37)" fill="#e7e0e1"/>
      <ellipse id="Ellipse_62-2" data-name="Ellipse 62" cx="2.5" cy="3" rx="2.5" ry="3" transform="translate(27.015 133.37)" fill="#e7e0e1"/>
      <circle id="Ellipse_25-2" data-name="Ellipse 25" cx="2.5" cy="2.5" r="2.5" transform="translate(27.015 80.37)" fill="#e7e0e1"/>
      <circle id="Ellipse_63-2" data-name="Ellipse 63" cx="2.5" cy="2.5" r="2.5" transform="translate(27.015 187.37)" fill="#e7e0e1"/>
      <circle id="Ellipse_10-2" data-name="Ellipse 10" cx="2.5" cy="2.5" r="2.5" transform="translate(134.015 0.37)" fill="#e7e0e1"/>
      <ellipse id="Ellipse_53-2" data-name="Ellipse 53" cx="2.5" cy="3" rx="2.5" ry="3" transform="translate(134.015 106.37)" fill="#e7e0e1"/>
      <ellipse id="Ellipse_32-2" data-name="Ellipse 32" cx="2.5" cy="3" rx="2.5" ry="3" transform="translate(134.015 53.37)" fill="#e7e0e1"/>
      <circle id="Ellipse_39-2" data-name="Ellipse 39" cx="2.5" cy="2.5" r="2.5" transform="translate(134.015 160.37)" fill="#e7e0e1"/>
      <ellipse id="Ellipse_17-2" data-name="Ellipse 17" cx="2.5" cy="3" rx="2.5" ry="3" transform="translate(134.015 26.37)" fill="#e7e0e1"/>
      <ellipse id="Ellipse_46-2" data-name="Ellipse 46" cx="2.5" cy="3" rx="2.5" ry="3" transform="translate(134.015 133.37)" fill="#e7e0e1"/>
      <circle id="Ellipse_33-2" data-name="Ellipse 33" cx="2.5" cy="2.5" r="2.5" transform="translate(134.015 80.37)" fill="#e7e0e1"/>
      <circle id="Ellipse_40-2" data-name="Ellipse 40" cx="2.5" cy="2.5" r="2.5" transform="translate(134.015 187.37)" fill="#e7e0e1"/>
      <ellipse id="Ellipse_6-2" data-name="Ellipse 6" cx="3" cy="2.5" rx="3" ry="2.5" transform="translate(80.015 0.37)" fill="#e7e0e1"/>
      <circle id="Ellipse_54-2" data-name="Ellipse 54" cx="3" cy="3" r="3" transform="translate(80.015 106.37)" fill="#e7e0e1"/>
      <circle id="Ellipse_26-2" data-name="Ellipse 26" cx="3" cy="3" r="3" transform="translate(80.015 53.37)" fill="#e7e0e1"/>
      <ellipse id="Ellipse_48-2" data-name="Ellipse 48" cx="3" cy="2.5" rx="3" ry="2.5" transform="translate(80.015 160.37)" fill="#e7e0e1"/>
      <circle id="Ellipse_18-2" data-name="Ellipse 18" cx="3" cy="3" r="3" transform="translate(80.015 26.37)" fill="#e7e0e1"/>
      <circle id="Ellipse_49-2" data-name="Ellipse 49" cx="3" cy="3" r="3" transform="translate(80.015 133.37)" fill="#e7e0e1"/>
      <ellipse id="Ellipse_27-2" data-name="Ellipse 27" cx="3" cy="2.5" rx="3" ry="2.5" transform="translate(80.015 80.37)" fill="#e7e0e1"/>
      <ellipse id="Ellipse_50-2" data-name="Ellipse 50" cx="3" cy="2.5" rx="3" ry="2.5" transform="translate(80.015 187.37)" fill="#e7e0e1"/>
      <ellipse id="Ellipse_8-2" data-name="Ellipse 8" cx="3" cy="2.5" rx="3" ry="2.5" transform="translate(187.015 0.37)" fill="#e7e0e1"/>
      <circle id="Ellipse_55-2" data-name="Ellipse 55" cx="3" cy="3" r="3" transform="translate(187.015 106.37)" fill="#e7e0e1"/>
      <circle id="Ellipse_34-2" data-name="Ellipse 34" cx="3" cy="3" r="3" transform="translate(187.015 53.37)" fill="#e7e0e1"/>
      <ellipse id="Ellipse_41-2" data-name="Ellipse 41" cx="3" cy="2.5" rx="3" ry="2.5" transform="translate(187.015 160.37)" fill="#e7e0e1"/>
      <circle id="Ellipse_19-2" data-name="Ellipse 19" cx="3" cy="3" r="3" transform="translate(187.015 26.37)" fill="#e7e0e1"/>
      <circle id="Ellipse_47-2" data-name="Ellipse 47" cx="3" cy="3" r="3" transform="translate(187.015 133.37)" fill="#e7e0e1"/>
      <ellipse id="Ellipse_35-2" data-name="Ellipse 35" cx="3" cy="2.5" rx="3" ry="2.5" transform="translate(187.015 80.37)" fill="#e7e0e1"/>
      <ellipse id="Ellipse_36-2" data-name="Ellipse 36" cx="3" cy="2.5" rx="3" ry="2.5" transform="translate(187.015 187.37)" fill="#e7e0e1"/>
    </g>
  </g>
</svg>
