<svg id="Twitter" xmlns="http://www.w3.org/2000/svg" width="40" height="40" viewBox="0 0 40 40">
  <path id="Path_45939" data-name="Path 45939" d="M0,20A20,20,0,1,1,20,40,20,20,0,0,1,0,20Z" fill="#1da1f2"/>
  <path id="Path_45940" data-name="Path 45940" d="M22.79,19.129l.048.769-.8-.094a13.229,13.229,0,0,1-7.643-3.641l-1.06-1.02-.273.753a4.423,4.423,0,0,0,1,4.645c.642.659.5.753-.61.361a1.948,1.948,0,0,0-.755-.173,5.481,5.481,0,0,0,.578,2.1,5.118,5.118,0,0,0,2.2,2.009l.787.361-.931.016c-.9,0-.931.016-.835.345a4.8,4.8,0,0,0,3,2.574l1,.33-.867.5a9.266,9.266,0,0,1-4.3,1.161A4.9,4.9,0,0,0,12,30.255a12.4,12.4,0,0,0,3.1,1.381,13.96,13.96,0,0,0,10.533-1.161,13.776,13.776,0,0,0,5.347-6.089,15.748,15.748,0,0,0,1.092-4.708c0-.722.048-.816.947-1.679a10.384,10.384,0,0,0,1.124-1.208c.16-.3.145-.3-.674-.031-1.365.471-1.558.408-.883-.3a4.543,4.543,0,0,0,1.092-1.679c0-.047-.241.031-.514.173a9.134,9.134,0,0,1-1.413.534l-.867.267-.787-.518a6.615,6.615,0,0,0-1.365-.69,5.66,5.66,0,0,0-2.81.063A4.5,4.5,0,0,0,22.79,19.129Z" transform="translate(-2 -2.178)" fill="#fff"/>
</svg>
