<svg id="Youtube" xmlns="http://www.w3.org/2000/svg" width="40" height="40" viewBox="0 0 40 40">
  <path id="Path_45941" data-name="Path 45941" d="M40,20A20,20,0,1,0,20,40,20,20,0,0,0,40,20Z" fill="red"/>
  <path id="Path_45942" data-name="Path 45942" d="M18.922,12.676s-6.945,0-8.689.453a2.872,2.872,0,0,0-1.963,1.977,29.747,29.747,0,0,0-.453,5.355A29.46,29.46,0,0,0,8.271,25.8a2.828,2.828,0,0,0,1.963,1.963c1.757.467,8.689.467,8.689.467s6.959,0,8.7-.453a2.762,2.762,0,0,0,1.949-1.963,28.69,28.69,0,0,0,.467-5.341,27.808,27.808,0,0,0-.467-5.368,2.744,2.744,0,0,0-1.949-1.95c-1.743-.48-8.7-.48-8.7-.48Zm-2.21,4.448,5.779,3.336-5.779,3.322V17.124Z" transform="translate(1.071 -0.454)" fill="#fff"/>
</svg>
